{"title":"The Abominable Bride 2016 BRRip x264 AAC-SSN","uid":13206938,"size":1394297124,"categoryP":"video","categoryS":"movies","magnet":"?xt=urn:btih:94e0e7f07db3d30c2ca7bd2f4306279219035cea&amp;dn=The+Abominable+Bride+2016+BRRip+x264+AAC-SSN&amp;tr=udp%3A%2F%2Ftracker.leechers-paradise.org%3A6969&amp;tr=udp%3A%2F%2Fzer0day.ch%3A1337&amp;tr=udp%3A%2F%2Fopen.demonii.com%3A1337&amp;tr=udp%3A%2F%2Ftracker.coppersurfer.tk%3A6969&amp;tr=udp%3A%2F%2Fexodus.desync.com%3A6969","seeders":1,"leechers":0,"uploader":"somespirit","files":2,"time":1452608469,"description":"\n IMDB:  http://www.imdb.com/title/tt3845232/\r\n\r\n\r\n Source: The.Abominable.Bride.2015.BluRay.1080p.DTS-HD.MA.7.1.x264.dxva-FraMeSToR\r\n\r\n\r\n\r\n General\r\n Complete name                            : The Abominable Bride 2016 BRRip x264 AAC-SSN.mkv\r\n Format                                   : Matroska\r\n Format version                           : Version 4 / Version 2\r\n File size                                : 1.30 GiB\r\n Duration                                 : 1h 33mn\r\n Overall bit rate                         : 1 997 Kbps\r\n Encoded date                             : UTC 2016-01-11 10:24:28\r\n Writing application                      : mkvmerge v8.6.1 ('Flying') 64bit\r\n Writing library                          : libebml v1.3.3 + libmatroska v1.4.4\r\n\r\n Video\r\n ID                                       : 1\r\n Format                                   : AVC\r\n Format/Info                              : Advanced Video Codec\r\n Format profile                           :   \r\n Format settings, CABAC                   : Yes\r\n Format settings, ReFrames                : 5 frames\r\n Codec ID                                 : V_MPEG4/ISO/AVC\r\n Duration                                 : 1h 33mn\r\n Bit rate                                 : 1 665 Kbps\r\n Width                                    : 900 pixels\r\n Height                                   : 488 pixels\r\n Display aspect ratio                     : 1.85:1\r\n Frame rate mode                          : Constant\r\n Frame rate                               : 24.000 fps\r\n Color space                              : YUV\r\n Chroma subsampling                       : 4:2:0\r\n Bit depth                                : 8 bits\r\n Scan type                                : Progressive\r\n Bits/(Pixel*Frame)                       : 0.190\r\n Stream size                              : 1.08 GiB (83%)\r\n Writing library                          : x264 core 148 r2638 7599210\r\n Language                                 : English\r\n Default                                  : Yes\r\n Forced                                   : No\r\n\r\n Audio\r\n ID                                       : 2\r\n Format                                   : AAC\r\n Format/Info                              : Advanced Audio Codec\r\n Format profile                           : LC\r\n Codec ID                                 : A_AAC\r\n Duration                                 : 1h 33mn\r\n Bit rate                                 : 329 Kbps\r\n Channel(s)                               : 6 channels\r\n Channel positions                        : Front: L C R, Side: L R, LFE\r\n Sampling rate                            : 32.0 KHz\r\n Frame rate                               : 31.250 fps (1024 spf)\r\n Compression mode                         : Lossy\r\n Stream size                              : 219 MiB (16%)\r\n Default                                  : Yes\r\n Forced                                   : No\r\n\r\n \nhttp://lookpic.com/O/i2/1028/f8KC6Rzs.png\r\n \nhttp://lookpic.com/O/i2/821/Xj9gx1UI.png\r\n \nhttp://lookpic.com/O/i2/311/feiCW3Y.png","torrent":{"xt":"urn:btih:94e0e7f07db3d30c2ca7bd2f4306279219035cea","amp;dn":"The+Abominable+Bride+2016+BRRip+x264+AAC-SSN","amp;tr":["udp%3A%2F%2Ftracker.leechers-paradise.org%3A6969","udp%3A%2F%2Fzer0day.ch%3A1337","udp%3A%2F%2Fopen.demonii.com%3A1337","udp%3A%2F%2Ftracker.coppersurfer.tk%3A6969","udp%3A%2F%2Fexodus.desync.com%3A6969"],"infoHash":"94e0e7f07db3d30c2ca7bd2f4306279219035cea","infoHashBuffer":{"type":"Buffer","data":[148,224,231,240,125,179,211,12,44,167,189,47,67,6,39,146,25,3,92,234]},"announce":[],"urlList":[]}}